<mxfile host="app.diagrams.net" modified="2021-11-01T08:24:43.445Z" agent="5.0 (Windows NT 10.0; Win64; x64) AppleWebKit/537.36 (KHTML, like Gecko) Chrome/93.0.4577.82 Safari/537.36" etag="408T7JB1o-msXtMibmL3" version="15.6.3" type="github">
  <diagram id="M42GQTQNoN1NJu-HFv05" name="Page-1">
    <mxGraphModel dx="1422" dy="794" grid="1" gridSize="10" guides="1" tooltips="1" connect="1" arrows="1" fold="1" page="1" pageScale="1" pageWidth="827" pageHeight="1169" background="#ffffff" math="0" shadow="0">
      <root>
        <mxCell id="0" />
        <mxCell id="1" parent="0" />
        <mxCell id="ijc2J1Dd8RDhH8m0BaV3-1" value="&lt;a class=&quot;Krnil&quot; href=&quot;https://www.terrasoft.ru/page/crm-products&quot; style=&quot;color: rgb(26 , 13 , 171) ; outline: 0px ; font-family: &amp;#34;arial&amp;#34; , sans-serif ; font-size: 14px ; background-color: rgb(255 , 255 , 255)&quot;&gt;&lt;div class=&quot;cfxYMc JfZTW c4Djg MUxGbd v0nnCb&quot; style=&quot;display: inline-block ; padding-top: 4px ; margin-bottom: 3px ; font-size: 20px ; line-height: 26px&quot;&gt;&lt;font style=&quot;vertical-align: inherit&quot;&gt;&lt;font style=&quot;vertical-align: inherit&quot;&gt;&lt;font style=&quot;vertical-align: inherit&quot;&gt;&lt;font style=&quot;vertical-align: inherit&quot;&gt;&lt;font style=&quot;vertical-align: inherit&quot;&gt;&lt;font style=&quot;vertical-align: inherit&quot;&gt;Террасофт/&lt;br&gt;CDMS&lt;/font&gt;&lt;/font&gt;&lt;/font&gt;&lt;/font&gt;&lt;/font&gt;&lt;/font&gt;&lt;/div&gt;&lt;/a&gt;&lt;br&gt;&lt;font style=&quot;vertical-align: inherit&quot;&gt;&lt;font style=&quot;vertical-align: inherit&quot;&gt;&lt;span style=&quot;font-weight: bold ; color: rgb(95 , 99 , 104) ; font-family: &amp;#34;arial&amp;#34; , sans-serif ; font-size: 14px ; text-align: left ; background-color: rgb(255 , 255 , 255)&quot;&gt;call center&lt;/span&gt;&lt;br&gt;&lt;br&gt;&lt;/font&gt;&lt;/font&gt;" style="ellipse;whiteSpace=wrap;html=1;" vertex="1" parent="1">
          <mxGeometry x="324" y="680" width="180" height="100" as="geometry" />
        </mxCell>
        <mxCell id="ijc2J1Dd8RDhH8m0BaV3-2" value="&lt;font style=&quot;vertical-align: inherit&quot;&gt;&lt;font style=&quot;vertical-align: inherit&quot;&gt;lmp.bmw.ru&lt;/font&gt;&lt;/font&gt;" style="ellipse;whiteSpace=wrap;html=1;" vertex="1" parent="1">
          <mxGeometry x="354" y="260" width="120" height="80" as="geometry" />
        </mxCell>
        <mxCell id="ijc2J1Dd8RDhH8m0BaV3-3" value="&lt;font style=&quot;vertical-align: inherit&quot;&gt;&lt;font style=&quot;vertical-align: inherit&quot;&gt;DMS/БМВ КМВ&lt;/font&gt;&lt;/font&gt;" style="ellipse;whiteSpace=wrap;html=1;" vertex="1" parent="1">
          <mxGeometry x="20" y="545" width="120" height="80" as="geometry" />
        </mxCell>
        <mxCell id="ijc2J1Dd8RDhH8m0BaV3-4" value="&lt;font style=&quot;vertical-align: inherit&quot;&gt;&lt;font style=&quot;vertical-align: inherit&quot;&gt;DMS/БМВ Ставрополь&lt;/font&gt;&lt;/font&gt;" style="ellipse;whiteSpace=wrap;html=1;" vertex="1" parent="1">
          <mxGeometry x="680" y="545" width="120" height="80" as="geometry" />
        </mxCell>
        <mxCell id="ijc2J1Dd8RDhH8m0BaV3-6" value="" style="endArrow=classic;html=1;rounded=0;exitX=0.5;exitY=1;exitDx=0;exitDy=0;entryX=0.5;entryY=0;entryDx=0;entryDy=0;shape=flexArrow;" edge="1" parent="1" source="ijc2J1Dd8RDhH8m0BaV3-2" target="ijc2J1Dd8RDhH8m0BaV3-1">
          <mxGeometry width="50" height="50" relative="1" as="geometry">
            <mxPoint x="390" y="600" as="sourcePoint" />
            <mxPoint x="440" y="550" as="targetPoint" />
          </mxGeometry>
        </mxCell>
        <mxCell id="ijc2J1Dd8RDhH8m0BaV3-7" value="" style="shape=flexArrow;endArrow=classic;html=1;rounded=0;exitX=1;exitY=0.5;exitDx=0;exitDy=0;entryX=0;entryY=0.5;entryDx=0;entryDy=0;" edge="1" parent="1" source="ijc2J1Dd8RDhH8m0BaV3-1" target="ijc2J1Dd8RDhH8m0BaV3-4">
          <mxGeometry width="50" height="50" relative="1" as="geometry">
            <mxPoint x="390" y="600" as="sourcePoint" />
            <mxPoint x="440" y="550" as="targetPoint" />
          </mxGeometry>
        </mxCell>
        <mxCell id="ijc2J1Dd8RDhH8m0BaV3-8" value="" style="shape=flexArrow;endArrow=classic;html=1;rounded=0;exitX=0;exitY=0.5;exitDx=0;exitDy=0;entryX=1;entryY=0.5;entryDx=0;entryDy=0;" edge="1" parent="1" source="ijc2J1Dd8RDhH8m0BaV3-1" target="ijc2J1Dd8RDhH8m0BaV3-3">
          <mxGeometry width="50" height="50" relative="1" as="geometry">
            <mxPoint x="390" y="590" as="sourcePoint" />
            <mxPoint x="440" y="540" as="targetPoint" />
          </mxGeometry>
        </mxCell>
        <mxCell id="ijc2J1Dd8RDhH8m0BaV3-9" value="" style="shape=flexArrow;endArrow=classic;html=1;rounded=0;entryX=0;entryY=1;entryDx=0;entryDy=0;" edge="1" parent="1" source="ijc2J1Dd8RDhH8m0BaV3-3" target="ijc2J1Dd8RDhH8m0BaV3-2">
          <mxGeometry width="50" height="50" relative="1" as="geometry">
            <mxPoint x="390" y="590" as="sourcePoint" />
            <mxPoint x="440" y="540" as="targetPoint" />
          </mxGeometry>
        </mxCell>
        <mxCell id="ijc2J1Dd8RDhH8m0BaV3-10" value="" style="shape=flexArrow;endArrow=classic;html=1;rounded=0;exitX=0;exitY=0;exitDx=0;exitDy=0;entryX=1;entryY=1;entryDx=0;entryDy=0;" edge="1" parent="1" source="ijc2J1Dd8RDhH8m0BaV3-4" target="ijc2J1Dd8RDhH8m0BaV3-2">
          <mxGeometry width="50" height="50" relative="1" as="geometry">
            <mxPoint x="390" y="590" as="sourcePoint" />
            <mxPoint x="440" y="540" as="targetPoint" />
          </mxGeometry>
        </mxCell>
        <mxCell id="ijc2J1Dd8RDhH8m0BaV3-11" value="&lt;span lang=&quot;EN-US&quot; style=&quot;font-size: 11.0pt ; line-height: 115% ; font-family: &amp;#34;calibri&amp;#34; , sans-serif&quot;&gt;POST&lt;/span&gt;&lt;span lang=&quot;EN-US&quot; style=&quot;font-size: 11.0pt ; line-height: 115% ; font-family: &amp;#34;calibri&amp;#34; , sans-serif&quot;&gt; &lt;/span&gt;&lt;span lang=&quot;EN-US&quot; style=&quot;font-size: 11.0pt ; line-height: 115% ; font-family: &amp;#34;calibri&amp;#34; , sans-serif&quot;&gt;HTTP&lt;/span&gt;&lt;span style=&quot;font-size: 11.0pt ; line-height: 115% ; font-family: &amp;#34;calibri&amp;#34; , sans-serif&quot;&gt;(&lt;/span&gt;&lt;span lang=&quot;EN-US&quot; style=&quot;font-size: 11.0pt ; line-height: 115% ; font-family: &amp;#34;calibri&amp;#34; , sans-serif&quot;&gt;S&lt;/span&gt;&lt;span style=&quot;font-size: 11.0pt ; line-height: 115% ; font-family: &amp;#34;calibri&amp;#34; , sans-serif&quot;&gt;) запросы, содержащие &lt;/span&gt;&lt;span lang=&quot;EN-US&quot; style=&quot;font-size: 11.0pt ; line-height: 115% ; font-family: &amp;#34;calibri&amp;#34; , sans-serif&quot;&gt;JSON&lt;/span&gt;&lt;span style=&quot;font-size: 11.0pt ; line-height: 115% ; font-family: &amp;#34;calibri&amp;#34; , sans-serif&quot;&gt;&lt;br/&gt;объекты&lt;/span&gt;" style="text;html=1;align=center;verticalAlign=middle;resizable=0;points=[];autosize=1;strokeColor=none;fillColor=none;rotation=90;" vertex="1" parent="1">
          <mxGeometry x="300" y="490" width="270" height="40" as="geometry" />
        </mxCell>
        <mxCell id="ijc2J1Dd8RDhH8m0BaV3-13" value="Сообщения с сайта" style="text;html=1;align=center;verticalAlign=middle;resizable=0;points=[];autosize=1;strokeColor=none;fillColor=none;" vertex="1" parent="1">
          <mxGeometry x="350" y="780" width="120" height="20" as="geometry" />
        </mxCell>
        <mxCell id="ijc2J1Dd8RDhH8m0BaV3-15" value="Интеграцией обмениваются с DMS" style="text;html=1;align=center;verticalAlign=middle;resizable=0;points=[];autosize=1;strokeColor=none;fillColor=none;rotation=40;" vertex="1" parent="1">
          <mxGeometry x="130" y="670" width="210" height="20" as="geometry" />
        </mxCell>
        <mxCell id="ijc2J1Dd8RDhH8m0BaV3-16" value="Интеграцией обмениваются с DMS" style="text;html=1;align=center;verticalAlign=middle;resizable=0;points=[];autosize=1;strokeColor=none;fillColor=none;rotation=-45;" vertex="1" parent="1">
          <mxGeometry x="470" y="625" width="210" height="20" as="geometry" />
        </mxCell>
        <mxCell id="ijc2J1Dd8RDhH8m0BaV3-17" value="JSON объекты LEAD" style="text;html=1;align=center;verticalAlign=middle;resizable=0;points=[];autosize=1;strokeColor=none;fillColor=none;rotation=-40;" vertex="1" parent="1">
          <mxGeometry x="140" y="440" width="130" height="20" as="geometry" />
        </mxCell>
        <mxCell id="ijc2J1Dd8RDhH8m0BaV3-18" value="JSON объекты LEAD" style="text;html=1;align=center;verticalAlign=middle;resizable=0;points=[];autosize=1;strokeColor=none;fillColor=none;rotation=45;" vertex="1" parent="1">
          <mxGeometry x="510" y="410" width="130" height="20" as="geometry" />
        </mxCell>
        <mxCell id="ijc2J1Dd8RDhH8m0BaV3-19" value="События обогащенные &lt;br&gt;информацией по LEAD" style="text;html=1;align=center;verticalAlign=middle;resizable=0;points=[];autosize=1;strokeColor=none;fillColor=none;" vertex="1" parent="1">
          <mxGeometry y="625" width="150" height="30" as="geometry" />
        </mxCell>
        <mxCell id="ijc2J1Dd8RDhH8m0BaV3-20" value="События обогащенные &lt;br&gt;информацией по LEAD" style="text;html=1;align=center;verticalAlign=middle;resizable=0;points=[];autosize=1;strokeColor=none;fillColor=none;" vertex="1" parent="1">
          <mxGeometry x="665" y="625" width="150" height="30" as="geometry" />
        </mxCell>
      </root>
    </mxGraphModel>
  </diagram>
</mxfile>
